M48
;GenerationSoftware,Autodesk,EAGLE,9.6.2*%
;CreationDate,2023-04-22T23:58:53Z*%
FMAT,2
ICI,OFF
METRIC,TZ,000.000
T5C0.700
T4C0.813
T3C0.900
T2C1.016
T1C1.020
%
G90
M71
T1
X67310Y40640
X67310Y38100
X67310Y35560
X67310Y33020
X92710Y25400
X92710Y22860
X92710Y20320
X92710Y17780
X92710Y15240
X92710Y12700
X92710Y10160
X92710Y7620
X92710Y5080
X92710Y2540
X92710Y53340
X92710Y50800
X92710Y48260
X92710Y45720
X92710Y43180
X92710Y40640
X92710Y38100
X92710Y35560
X92710Y33020
X92710Y30480
X67310Y30480
X67310Y27940
X67310Y43180
X67310Y45720
X67310Y48260
X67310Y50800
X67310Y53340
X67310Y2540
X67310Y5080
X67310Y7620
X92710Y27940
X67310Y25400
X67310Y22860
X67310Y20320
X67310Y17780
X67310Y15240
X67310Y12700
X67310Y10160
T2
X96647Y71120
X76200Y69850
X73660Y69850
X71120Y69850
X66040Y69850
X63500Y69850
X60960Y69850
X58420Y69850
X93853Y67310
X96647Y67310
X93853Y71120
X68580Y69850
T3
X22860Y76200
X30480Y76200
T4
X8890Y57150
X19050Y64770
X11430Y57150
X13970Y57150
X16510Y57150
X19050Y57150
X21590Y57150
X24130Y57150
X26670Y57150
X29210Y57150
X31750Y57150
X34290Y57150
X36830Y57150
X36830Y64770
X34290Y64770
X31750Y64770
X8890Y64770
X11430Y64770
X13970Y64770
X16510Y64770
X29210Y64770
X21590Y64770
X24130Y64770
X26670Y64770
T5
X12880Y27790
X27880Y10290
X27880Y12690
X27880Y15290
X27880Y17790
X27880Y20290
X27880Y22790
X27880Y25290
X27880Y27790
X12880Y10290
X12880Y12690
X12880Y15290
X12880Y17790
X12880Y20290
X12880Y22790
X12880Y25290
M30