G04 EAGLE Gerber RS-274X export*
G75*
%MOMM*%
%FSLAX34Y34*%
%LPD*%
%INBottom Copper*%
%IPPOS*%
%AMOC8*
5,1,8,0,0,1.08239X$1,22.5*%
G01*
%ADD10C,1.320800*%
%ADD11C,1.879600*%
%ADD12C,1.270000*%
%ADD13C,1.530000*%
%ADD14C,2.032000*%
%ADD15C,0.152400*%


D10*
X88900Y564896D02*
X88900Y578104D01*
X114300Y578104D02*
X114300Y564896D01*
X139700Y564896D02*
X139700Y578104D01*
X165100Y578104D02*
X165100Y564896D01*
X190500Y564896D02*
X190500Y578104D01*
X215900Y578104D02*
X215900Y564896D01*
X241300Y564896D02*
X241300Y578104D01*
X266700Y578104D02*
X266700Y564896D01*
X292100Y564896D02*
X292100Y578104D01*
X317500Y578104D02*
X317500Y564896D01*
X342900Y564896D02*
X342900Y578104D01*
X368300Y578104D02*
X368300Y564896D01*
X368300Y641096D02*
X368300Y654304D01*
X342900Y654304D02*
X342900Y641096D01*
X317500Y641096D02*
X317500Y654304D01*
X292100Y654304D02*
X292100Y641096D01*
X266700Y641096D02*
X266700Y654304D01*
X241300Y654304D02*
X241300Y641096D01*
X215900Y641096D02*
X215900Y654304D01*
X190500Y654304D02*
X190500Y641096D01*
X165100Y641096D02*
X165100Y654304D01*
X139700Y654304D02*
X139700Y641096D01*
X114300Y641096D02*
X114300Y654304D01*
X88900Y654304D02*
X88900Y641096D01*
D11*
X584200Y698500D03*
X609600Y698500D03*
X635000Y698500D03*
X660400Y698500D03*
X685800Y698500D03*
X711200Y698500D03*
X736600Y698500D03*
X762000Y698500D03*
X228600Y762000D03*
X304800Y762000D03*
D12*
X278800Y102900D03*
X278800Y126900D03*
X278800Y152900D03*
X278800Y177900D03*
X278800Y202900D03*
X278800Y227900D03*
X278800Y252900D03*
X278800Y277900D03*
X128800Y102900D03*
X128800Y126900D03*
X128800Y152900D03*
X128800Y177900D03*
X128800Y202900D03*
X128800Y227900D03*
X128800Y252900D03*
X128800Y277900D03*
D13*
X673100Y279400D03*
X673100Y304800D03*
X673100Y330200D03*
X673100Y355600D03*
X673100Y381000D03*
X673100Y406400D03*
X673100Y431800D03*
X673100Y457200D03*
X673100Y482600D03*
X673100Y508000D03*
X673100Y533400D03*
X673100Y25400D03*
X673100Y50800D03*
X673100Y76200D03*
X673100Y101600D03*
X673100Y127000D03*
X673100Y152400D03*
X673100Y177800D03*
X673100Y203200D03*
X673100Y228600D03*
X673100Y254000D03*
X927100Y279400D03*
X927100Y304800D03*
X927100Y330200D03*
X927100Y355600D03*
X927100Y381000D03*
X927100Y406400D03*
X927100Y431800D03*
X927100Y457200D03*
X927100Y482600D03*
X927100Y508000D03*
X927100Y533400D03*
X927100Y25400D03*
X927100Y50800D03*
X927100Y76200D03*
X927100Y101600D03*
X927100Y127000D03*
X927100Y152400D03*
X927100Y177800D03*
X927100Y203200D03*
X927100Y228600D03*
X927100Y254000D03*
D14*
X938530Y673100D03*
X966470Y673100D03*
X938530Y711200D03*
X966470Y711200D03*
D15*
X673100Y36513D02*
X673100Y25400D01*
X673100Y36513D02*
X661988Y47625D01*
X661988Y587375D02*
X661988Y674688D01*
X661988Y587375D02*
X661988Y47625D01*
X661988Y674688D02*
X685800Y698500D01*
X296863Y571500D02*
X292100Y571500D01*
X296863Y571500D02*
X312738Y587375D01*
X661988Y587375D01*
X673100Y50800D02*
X785813Y50800D01*
X927100Y192088D01*
X930275Y192088D01*
X965200Y227013D01*
X965200Y673100D01*
X966470Y673100D01*
X128588Y190500D02*
X128588Y179388D01*
X128588Y190500D02*
X115888Y203200D01*
X115888Y552450D01*
X130175Y566738D01*
X130175Y638175D01*
X139700Y647700D01*
X128588Y179388D02*
X128800Y177900D01*
X241300Y103188D02*
X277813Y103188D01*
X241300Y103188D02*
X125413Y219075D01*
X123825Y219075D01*
X119063Y223838D01*
X119063Y550863D01*
X139700Y571500D01*
X277813Y103188D02*
X278800Y102900D01*
X279400Y127000D02*
X279400Y139700D01*
X288925Y149225D01*
X288925Y473075D01*
X190500Y571500D01*
X278800Y126900D02*
X279400Y127000D01*
X277813Y228600D02*
X277813Y241300D01*
X174625Y344488D01*
X174625Y658813D01*
X169863Y663575D01*
X130175Y663575D01*
X114300Y647700D01*
X277813Y228600D02*
X278800Y227900D01*
X130175Y228600D02*
X130175Y241300D01*
X155575Y266700D01*
X155575Y638175D01*
X165100Y647700D01*
X130175Y228600D02*
X128800Y227900D01*
X128588Y139700D02*
X128588Y127000D01*
X128588Y139700D02*
X104775Y163513D01*
X104775Y658813D01*
X112713Y666750D01*
X298450Y666750D01*
X317500Y647700D01*
X128588Y127000D02*
X128800Y126900D01*
X88900Y571500D02*
X88900Y627063D01*
X101600Y639763D01*
X101600Y660400D01*
X127000Y685800D01*
X596900Y685800D01*
X609600Y698500D01*
X927100Y214313D02*
X927100Y203200D01*
X927100Y214313D02*
X938213Y225425D01*
X938213Y539750D01*
X760413Y717550D01*
X628650Y717550D01*
X609600Y698500D01*
X927100Y265113D02*
X927100Y254000D01*
X927100Y265113D02*
X723900Y468313D01*
X723900Y703263D01*
X712788Y714375D01*
X650875Y714375D01*
X635000Y698500D01*
X609600Y647700D02*
X368300Y647700D01*
X609600Y647700D02*
X660400Y698500D01*
X927100Y239713D02*
X927100Y228600D01*
X927100Y239713D02*
X698500Y468313D01*
X698500Y703263D01*
X690563Y711200D01*
X673100Y711200D01*
X660400Y698500D01*
M02*
