G04 EAGLE Gerber RS-274X export*
G75*
%MOMM*%
%FSLAX34Y34*%
%LPD*%
%INSoldermask Bottom*%
%IPPOS*%
%AMOC8*
5,1,8,0,0,1.08239X$1,22.5*%
G01*
%ADD10C,1.524000*%
%ADD11C,2.082800*%
%ADD12C,1.473200*%
%ADD13C,1.733200*%

G36*
X966460Y701097D02*
X966460Y701097D01*
X966525Y701093D01*
X968356Y701253D01*
X968402Y701266D01*
X968478Y701276D01*
X970242Y701790D01*
X970286Y701811D01*
X970358Y701836D01*
X971988Y702685D01*
X972026Y702714D01*
X972092Y702753D01*
X973525Y703903D01*
X973557Y703939D01*
X973614Y703990D01*
X974795Y705398D01*
X974819Y705439D01*
X974865Y705500D01*
X975410Y706493D01*
X975749Y707112D01*
X975764Y707157D01*
X975798Y707226D01*
X976350Y708979D01*
X976356Y709026D01*
X976376Y709100D01*
X976576Y710927D01*
X976572Y710973D01*
X976578Y711042D01*
X976455Y712718D01*
X976444Y712761D01*
X976438Y712827D01*
X976027Y714457D01*
X976008Y714497D01*
X975990Y714561D01*
X975302Y716094D01*
X975277Y716131D01*
X975248Y716191D01*
X974304Y717581D01*
X974273Y717613D01*
X974235Y717667D01*
X973064Y718873D01*
X973028Y718899D01*
X972980Y718945D01*
X971618Y719929D01*
X971577Y719948D01*
X971523Y719985D01*
X970010Y720718D01*
X969967Y720730D01*
X969907Y720757D01*
X968290Y721215D01*
X968245Y721220D01*
X968181Y721236D01*
X966509Y721407D01*
X966461Y721403D01*
X966382Y721407D01*
X964710Y721241D01*
X964667Y721229D01*
X964602Y721220D01*
X962984Y720766D01*
X962943Y720747D01*
X962880Y720727D01*
X961366Y719999D01*
X961330Y719973D01*
X961271Y719943D01*
X959906Y718962D01*
X959875Y718930D01*
X959822Y718890D01*
X958648Y717688D01*
X958623Y717651D01*
X958578Y717603D01*
X957631Y716215D01*
X957613Y716174D01*
X957577Y716118D01*
X956885Y714587D01*
X956874Y714544D01*
X956848Y714483D01*
X956433Y712854D01*
X956430Y712810D01*
X956415Y712745D01*
X956289Y711070D01*
X956293Y711023D01*
X956291Y710951D01*
X956496Y709116D01*
X956510Y709069D01*
X956522Y708994D01*
X957082Y707233D01*
X957105Y707191D01*
X957131Y707119D01*
X958024Y705502D01*
X958054Y705464D01*
X958094Y705399D01*
X959285Y703987D01*
X959322Y703956D01*
X959374Y703900D01*
X960818Y702747D01*
X960860Y702725D01*
X960922Y702680D01*
X962563Y701831D01*
X962609Y701817D01*
X962678Y701785D01*
X964453Y701272D01*
X964501Y701267D01*
X964576Y701250D01*
X966416Y701093D01*
X966460Y701097D01*
G37*
G36*
X938469Y701097D02*
X938469Y701097D01*
X938534Y701093D01*
X940365Y701253D01*
X940411Y701266D01*
X940487Y701276D01*
X942251Y701790D01*
X942295Y701811D01*
X942367Y701836D01*
X943997Y702685D01*
X944035Y702714D01*
X944101Y702753D01*
X945534Y703903D01*
X945566Y703939D01*
X945623Y703990D01*
X946804Y705398D01*
X946828Y705439D01*
X946874Y705500D01*
X947419Y706493D01*
X947758Y707112D01*
X947773Y707157D01*
X947807Y707226D01*
X948359Y708979D01*
X948365Y709026D01*
X948385Y709100D01*
X948585Y710927D01*
X948581Y710973D01*
X948587Y711042D01*
X948464Y712718D01*
X948453Y712761D01*
X948447Y712827D01*
X948036Y714457D01*
X948017Y714497D01*
X947999Y714561D01*
X947311Y716094D01*
X947286Y716131D01*
X947257Y716191D01*
X946313Y717581D01*
X946282Y717613D01*
X946244Y717667D01*
X945073Y718873D01*
X945037Y718899D01*
X944989Y718945D01*
X943627Y719929D01*
X943586Y719948D01*
X943532Y719985D01*
X942019Y720718D01*
X941976Y720730D01*
X941916Y720757D01*
X940299Y721215D01*
X940254Y721220D01*
X940190Y721236D01*
X938518Y721407D01*
X938470Y721403D01*
X938391Y721407D01*
X936719Y721241D01*
X936676Y721229D01*
X936611Y721220D01*
X934993Y720766D01*
X934952Y720747D01*
X934889Y720727D01*
X933375Y719999D01*
X933339Y719973D01*
X933280Y719943D01*
X931915Y718962D01*
X931884Y718930D01*
X931831Y718890D01*
X930657Y717688D01*
X930632Y717651D01*
X930587Y717603D01*
X929640Y716215D01*
X929622Y716174D01*
X929586Y716118D01*
X928894Y714587D01*
X928883Y714544D01*
X928857Y714483D01*
X928442Y712854D01*
X928439Y712810D01*
X928424Y712745D01*
X928298Y711070D01*
X928302Y711023D01*
X928300Y710951D01*
X928505Y709116D01*
X928519Y709069D01*
X928531Y708994D01*
X929091Y707233D01*
X929114Y707191D01*
X929140Y707119D01*
X930033Y705502D01*
X930063Y705464D01*
X930103Y705399D01*
X931294Y703987D01*
X931331Y703956D01*
X931383Y703900D01*
X932827Y702747D01*
X932869Y702725D01*
X932931Y702680D01*
X934572Y701831D01*
X934618Y701817D01*
X934687Y701785D01*
X936462Y701272D01*
X936510Y701267D01*
X936585Y701250D01*
X938425Y701093D01*
X938469Y701097D01*
G37*
G36*
X966460Y662997D02*
X966460Y662997D01*
X966525Y662993D01*
X968356Y663153D01*
X968402Y663166D01*
X968478Y663176D01*
X970242Y663690D01*
X970286Y663711D01*
X970358Y663736D01*
X971988Y664585D01*
X972026Y664614D01*
X972092Y664653D01*
X973525Y665803D01*
X973557Y665839D01*
X973614Y665890D01*
X974795Y667298D01*
X974819Y667339D01*
X974865Y667400D01*
X975410Y668393D01*
X975749Y669012D01*
X975764Y669057D01*
X975798Y669126D01*
X976350Y670879D01*
X976356Y670926D01*
X976376Y671000D01*
X976576Y672827D01*
X976572Y672873D01*
X976578Y672942D01*
X976455Y674618D01*
X976444Y674661D01*
X976438Y674727D01*
X976027Y676357D01*
X976008Y676397D01*
X975990Y676461D01*
X975302Y677994D01*
X975277Y678031D01*
X975248Y678091D01*
X974304Y679481D01*
X974273Y679513D01*
X974235Y679567D01*
X973064Y680773D01*
X973028Y680799D01*
X972980Y680845D01*
X971618Y681829D01*
X971577Y681848D01*
X971523Y681885D01*
X970010Y682618D01*
X969967Y682630D01*
X969907Y682657D01*
X968290Y683115D01*
X968245Y683120D01*
X968181Y683136D01*
X966509Y683307D01*
X966461Y683303D01*
X966382Y683307D01*
X964710Y683141D01*
X964667Y683129D01*
X964602Y683120D01*
X962984Y682666D01*
X962943Y682647D01*
X962880Y682627D01*
X961366Y681899D01*
X961330Y681873D01*
X961271Y681843D01*
X959906Y680862D01*
X959875Y680830D01*
X959822Y680790D01*
X958648Y679588D01*
X958623Y679551D01*
X958578Y679503D01*
X957631Y678115D01*
X957613Y678074D01*
X957577Y678018D01*
X956885Y676487D01*
X956874Y676444D01*
X956848Y676383D01*
X956433Y674754D01*
X956430Y674710D01*
X956415Y674645D01*
X956289Y672970D01*
X956293Y672923D01*
X956291Y672851D01*
X956496Y671016D01*
X956510Y670969D01*
X956522Y670894D01*
X957082Y669133D01*
X957105Y669091D01*
X957131Y669019D01*
X958024Y667402D01*
X958054Y667364D01*
X958094Y667299D01*
X959285Y665887D01*
X959322Y665856D01*
X959374Y665800D01*
X960818Y664647D01*
X960860Y664625D01*
X960922Y664580D01*
X962563Y663731D01*
X962609Y663717D01*
X962678Y663685D01*
X964453Y663172D01*
X964501Y663167D01*
X964576Y663150D01*
X966416Y662993D01*
X966460Y662997D01*
G37*
G36*
X938469Y662997D02*
X938469Y662997D01*
X938534Y662993D01*
X940365Y663153D01*
X940411Y663166D01*
X940487Y663176D01*
X942251Y663690D01*
X942295Y663711D01*
X942367Y663736D01*
X943997Y664585D01*
X944035Y664614D01*
X944101Y664653D01*
X945534Y665803D01*
X945566Y665839D01*
X945623Y665890D01*
X946804Y667298D01*
X946828Y667339D01*
X946874Y667400D01*
X947419Y668393D01*
X947758Y669012D01*
X947773Y669057D01*
X947807Y669126D01*
X948359Y670879D01*
X948365Y670926D01*
X948385Y671000D01*
X948585Y672827D01*
X948581Y672873D01*
X948587Y672942D01*
X948464Y674618D01*
X948453Y674661D01*
X948447Y674727D01*
X948036Y676357D01*
X948017Y676397D01*
X947999Y676461D01*
X947311Y677994D01*
X947286Y678031D01*
X947257Y678091D01*
X946313Y679481D01*
X946282Y679513D01*
X946244Y679567D01*
X945073Y680773D01*
X945037Y680799D01*
X944989Y680845D01*
X943627Y681829D01*
X943586Y681848D01*
X943532Y681885D01*
X942019Y682618D01*
X941976Y682630D01*
X941916Y682657D01*
X940299Y683115D01*
X940254Y683120D01*
X940190Y683136D01*
X938518Y683307D01*
X938470Y683303D01*
X938391Y683307D01*
X936719Y683141D01*
X936676Y683129D01*
X936611Y683120D01*
X934993Y682666D01*
X934952Y682647D01*
X934889Y682627D01*
X933375Y681899D01*
X933339Y681873D01*
X933280Y681843D01*
X931915Y680862D01*
X931884Y680830D01*
X931831Y680790D01*
X930657Y679588D01*
X930632Y679551D01*
X930587Y679503D01*
X929640Y678115D01*
X929622Y678074D01*
X929586Y678018D01*
X928894Y676487D01*
X928883Y676444D01*
X928857Y676383D01*
X928442Y674754D01*
X928439Y674710D01*
X928424Y674645D01*
X928298Y672970D01*
X928302Y672923D01*
X928300Y672851D01*
X928505Y671016D01*
X928519Y670969D01*
X928531Y670894D01*
X929091Y669133D01*
X929114Y669091D01*
X929140Y669019D01*
X930033Y667402D01*
X930063Y667364D01*
X930103Y667299D01*
X931294Y665887D01*
X931331Y665856D01*
X931383Y665800D01*
X932827Y664647D01*
X932869Y664625D01*
X932931Y664580D01*
X934572Y663731D01*
X934618Y663717D01*
X934687Y663685D01*
X936462Y663172D01*
X936510Y663167D01*
X936585Y663150D01*
X938425Y662993D01*
X938469Y662997D01*
G37*
D10*
X88900Y564896D02*
X88900Y578104D01*
X114300Y578104D02*
X114300Y564896D01*
X139700Y564896D02*
X139700Y578104D01*
X165100Y578104D02*
X165100Y564896D01*
X190500Y564896D02*
X190500Y578104D01*
X215900Y578104D02*
X215900Y564896D01*
X241300Y564896D02*
X241300Y578104D01*
X266700Y578104D02*
X266700Y564896D01*
X292100Y564896D02*
X292100Y578104D01*
X317500Y578104D02*
X317500Y564896D01*
X342900Y564896D02*
X342900Y578104D01*
X368300Y578104D02*
X368300Y564896D01*
X368300Y641096D02*
X368300Y654304D01*
X342900Y654304D02*
X342900Y641096D01*
X317500Y641096D02*
X317500Y654304D01*
X292100Y654304D02*
X292100Y641096D01*
X266700Y641096D02*
X266700Y654304D01*
X241300Y654304D02*
X241300Y641096D01*
X215900Y641096D02*
X215900Y654304D01*
X190500Y654304D02*
X190500Y641096D01*
X165100Y641096D02*
X165100Y654304D01*
X139700Y654304D02*
X139700Y641096D01*
X114300Y641096D02*
X114300Y654304D01*
X88900Y654304D02*
X88900Y641096D01*
D11*
X584200Y698500D03*
X609600Y698500D03*
X635000Y698500D03*
X660400Y698500D03*
X685800Y698500D03*
X711200Y698500D03*
X736600Y698500D03*
X762000Y698500D03*
X228600Y762000D03*
X304800Y762000D03*
D12*
X278800Y102900D03*
X278800Y126900D03*
X278800Y152900D03*
X278800Y177900D03*
X278800Y202900D03*
X278800Y227900D03*
X278800Y252900D03*
X278800Y277900D03*
X128800Y102900D03*
X128800Y126900D03*
X128800Y152900D03*
X128800Y177900D03*
X128800Y202900D03*
X128800Y227900D03*
X128800Y252900D03*
X128800Y277900D03*
D13*
X673100Y279400D03*
X673100Y304800D03*
X673100Y330200D03*
X673100Y355600D03*
X673100Y381000D03*
X673100Y406400D03*
X673100Y431800D03*
X673100Y457200D03*
X673100Y482600D03*
X673100Y508000D03*
X673100Y533400D03*
X673100Y25400D03*
X673100Y50800D03*
X673100Y76200D03*
X673100Y101600D03*
X673100Y127000D03*
X673100Y152400D03*
X673100Y177800D03*
X673100Y203200D03*
X673100Y228600D03*
X673100Y254000D03*
X927100Y279400D03*
X927100Y304800D03*
X927100Y330200D03*
X927100Y355600D03*
X927100Y381000D03*
X927100Y406400D03*
X927100Y431800D03*
X927100Y457200D03*
X927100Y482600D03*
X927100Y508000D03*
X927100Y533400D03*
X927100Y25400D03*
X927100Y50800D03*
X927100Y76200D03*
X927100Y101600D03*
X927100Y127000D03*
X927100Y152400D03*
X927100Y177800D03*
X927100Y203200D03*
X927100Y228600D03*
X927100Y254000D03*
M02*
