G04 EAGLE Gerber RS-274X export*
G75*
%MOMM*%
%FSLAX34Y34*%
%LPD*%
%INSoldermask Top*%
%IPPOS*%
%AMOC8*
5,1,8,0,0,1.08239X$1,22.5*%
G01*
%ADD10C,1.524000*%
%ADD11C,2.082800*%
%ADD12C,1.473200*%
%ADD13C,1.733200*%

G36*
X966436Y706177D02*
X966436Y706177D01*
X966511Y706174D01*
X967487Y706276D01*
X967535Y706290D01*
X967625Y706306D01*
X968554Y706622D01*
X968598Y706647D01*
X968683Y706683D01*
X969518Y707197D01*
X969555Y707231D01*
X969630Y707285D01*
X970330Y707973D01*
X970359Y708014D01*
X970419Y708083D01*
X970948Y708910D01*
X970967Y708956D01*
X971011Y709037D01*
X971343Y709960D01*
X971351Y710010D01*
X971376Y710099D01*
X971494Y711073D01*
X971491Y711123D01*
X971495Y711209D01*
X971400Y712211D01*
X971386Y712260D01*
X971370Y712350D01*
X971054Y713306D01*
X971030Y713351D01*
X970995Y713435D01*
X970473Y714296D01*
X970440Y714334D01*
X970387Y714409D01*
X969687Y715133D01*
X969646Y715162D01*
X969577Y715223D01*
X968734Y715773D01*
X968688Y715793D01*
X968607Y715837D01*
X967663Y716185D01*
X967613Y716194D01*
X967525Y716219D01*
X966527Y716349D01*
X966484Y716347D01*
X966358Y716348D01*
X965347Y716209D01*
X965299Y716193D01*
X965209Y716174D01*
X964254Y715812D01*
X964211Y715786D01*
X964127Y715748D01*
X963277Y715183D01*
X963240Y715148D01*
X963168Y715091D01*
X962464Y714352D01*
X962436Y714309D01*
X962378Y714238D01*
X961857Y713360D01*
X961839Y713313D01*
X961798Y713231D01*
X961485Y712259D01*
X961478Y712209D01*
X961457Y712120D01*
X961368Y711102D01*
X961373Y711052D01*
X961372Y710961D01*
X961503Y709997D01*
X961519Y709949D01*
X961538Y709860D01*
X961880Y708949D01*
X961906Y708906D01*
X961945Y708823D01*
X962482Y708011D01*
X962517Y707975D01*
X962573Y707902D01*
X963277Y707230D01*
X963319Y707203D01*
X963390Y707144D01*
X964226Y706646D01*
X964273Y706628D01*
X964355Y706588D01*
X965281Y706288D01*
X965331Y706281D01*
X965420Y706259D01*
X966389Y706173D01*
X966436Y706177D01*
G37*
G36*
X938445Y706177D02*
X938445Y706177D01*
X938520Y706174D01*
X939496Y706276D01*
X939544Y706290D01*
X939634Y706306D01*
X940563Y706622D01*
X940607Y706647D01*
X940692Y706683D01*
X941527Y707197D01*
X941564Y707231D01*
X941639Y707285D01*
X942339Y707973D01*
X942368Y708014D01*
X942428Y708083D01*
X942957Y708910D01*
X942976Y708956D01*
X943020Y709037D01*
X943352Y709960D01*
X943360Y710010D01*
X943385Y710099D01*
X943503Y711073D01*
X943500Y711123D01*
X943504Y711209D01*
X943409Y712211D01*
X943395Y712260D01*
X943379Y712350D01*
X943063Y713306D01*
X943039Y713351D01*
X943004Y713435D01*
X942482Y714296D01*
X942449Y714334D01*
X942396Y714409D01*
X941696Y715133D01*
X941655Y715162D01*
X941586Y715223D01*
X940743Y715773D01*
X940697Y715793D01*
X940616Y715837D01*
X939672Y716185D01*
X939622Y716194D01*
X939534Y716219D01*
X938536Y716349D01*
X938493Y716347D01*
X938367Y716348D01*
X937356Y716209D01*
X937308Y716193D01*
X937218Y716174D01*
X936263Y715812D01*
X936220Y715786D01*
X936136Y715748D01*
X935286Y715183D01*
X935249Y715148D01*
X935177Y715091D01*
X934473Y714352D01*
X934445Y714309D01*
X934387Y714238D01*
X933866Y713360D01*
X933848Y713313D01*
X933807Y713231D01*
X933494Y712259D01*
X933487Y712209D01*
X933466Y712120D01*
X933377Y711102D01*
X933382Y711052D01*
X933381Y710961D01*
X933512Y709997D01*
X933528Y709949D01*
X933547Y709860D01*
X933889Y708949D01*
X933915Y708906D01*
X933954Y708823D01*
X934491Y708011D01*
X934526Y707975D01*
X934582Y707902D01*
X935286Y707230D01*
X935328Y707203D01*
X935399Y707144D01*
X936235Y706646D01*
X936282Y706628D01*
X936364Y706588D01*
X937290Y706288D01*
X937340Y706281D01*
X937429Y706259D01*
X938398Y706173D01*
X938445Y706177D01*
G37*
G36*
X966436Y668077D02*
X966436Y668077D01*
X966511Y668074D01*
X967487Y668176D01*
X967535Y668190D01*
X967625Y668206D01*
X968554Y668522D01*
X968598Y668547D01*
X968683Y668583D01*
X969518Y669097D01*
X969555Y669131D01*
X969630Y669185D01*
X970330Y669873D01*
X970359Y669914D01*
X970419Y669983D01*
X970948Y670810D01*
X970967Y670856D01*
X971011Y670937D01*
X971343Y671860D01*
X971351Y671910D01*
X971376Y671999D01*
X971494Y672973D01*
X971491Y673023D01*
X971495Y673109D01*
X971400Y674111D01*
X971386Y674160D01*
X971370Y674250D01*
X971054Y675206D01*
X971030Y675251D01*
X970995Y675335D01*
X970473Y676196D01*
X970440Y676234D01*
X970387Y676309D01*
X969687Y677033D01*
X969646Y677062D01*
X969577Y677123D01*
X968734Y677673D01*
X968688Y677693D01*
X968607Y677737D01*
X967663Y678085D01*
X967613Y678094D01*
X967525Y678119D01*
X966527Y678249D01*
X966484Y678247D01*
X966358Y678248D01*
X965347Y678109D01*
X965299Y678093D01*
X965209Y678074D01*
X964254Y677712D01*
X964211Y677686D01*
X964127Y677648D01*
X963277Y677083D01*
X963240Y677048D01*
X963168Y676991D01*
X962464Y676252D01*
X962436Y676209D01*
X962378Y676138D01*
X961857Y675260D01*
X961839Y675213D01*
X961798Y675131D01*
X961485Y674159D01*
X961478Y674109D01*
X961457Y674020D01*
X961368Y673002D01*
X961373Y672952D01*
X961372Y672861D01*
X961503Y671897D01*
X961519Y671849D01*
X961538Y671760D01*
X961880Y670849D01*
X961906Y670806D01*
X961945Y670723D01*
X962482Y669911D01*
X962517Y669875D01*
X962573Y669802D01*
X963277Y669130D01*
X963319Y669103D01*
X963390Y669044D01*
X964226Y668546D01*
X964273Y668528D01*
X964355Y668488D01*
X965281Y668188D01*
X965331Y668181D01*
X965420Y668159D01*
X966389Y668073D01*
X966436Y668077D01*
G37*
G36*
X938445Y668077D02*
X938445Y668077D01*
X938520Y668074D01*
X939496Y668176D01*
X939544Y668190D01*
X939634Y668206D01*
X940563Y668522D01*
X940607Y668547D01*
X940692Y668583D01*
X941527Y669097D01*
X941564Y669131D01*
X941639Y669185D01*
X942339Y669873D01*
X942368Y669914D01*
X942428Y669983D01*
X942957Y670810D01*
X942976Y670856D01*
X943020Y670937D01*
X943352Y671860D01*
X943360Y671910D01*
X943385Y671999D01*
X943503Y672973D01*
X943500Y673023D01*
X943504Y673109D01*
X943409Y674111D01*
X943395Y674160D01*
X943379Y674250D01*
X943063Y675206D01*
X943039Y675251D01*
X943004Y675335D01*
X942482Y676196D01*
X942449Y676234D01*
X942396Y676309D01*
X941696Y677033D01*
X941655Y677062D01*
X941586Y677123D01*
X940743Y677673D01*
X940697Y677693D01*
X940616Y677737D01*
X939672Y678085D01*
X939622Y678094D01*
X939534Y678119D01*
X938536Y678249D01*
X938493Y678247D01*
X938367Y678248D01*
X937356Y678109D01*
X937308Y678093D01*
X937218Y678074D01*
X936263Y677712D01*
X936220Y677686D01*
X936136Y677648D01*
X935286Y677083D01*
X935249Y677048D01*
X935177Y676991D01*
X934473Y676252D01*
X934445Y676209D01*
X934387Y676138D01*
X933866Y675260D01*
X933848Y675213D01*
X933807Y675131D01*
X933494Y674159D01*
X933487Y674109D01*
X933466Y674020D01*
X933377Y673002D01*
X933382Y672952D01*
X933381Y672861D01*
X933512Y671897D01*
X933528Y671849D01*
X933547Y671760D01*
X933889Y670849D01*
X933915Y670806D01*
X933954Y670723D01*
X934491Y669911D01*
X934526Y669875D01*
X934582Y669802D01*
X935286Y669130D01*
X935328Y669103D01*
X935399Y669044D01*
X936235Y668546D01*
X936282Y668528D01*
X936364Y668488D01*
X937290Y668188D01*
X937340Y668181D01*
X937429Y668159D01*
X938398Y668073D01*
X938445Y668077D01*
G37*
D10*
X88900Y564896D02*
X88900Y578104D01*
X114300Y578104D02*
X114300Y564896D01*
X139700Y564896D02*
X139700Y578104D01*
X165100Y578104D02*
X165100Y564896D01*
X190500Y564896D02*
X190500Y578104D01*
X215900Y578104D02*
X215900Y564896D01*
X241300Y564896D02*
X241300Y578104D01*
X266700Y578104D02*
X266700Y564896D01*
X292100Y564896D02*
X292100Y578104D01*
X317500Y578104D02*
X317500Y564896D01*
X342900Y564896D02*
X342900Y578104D01*
X368300Y578104D02*
X368300Y564896D01*
X368300Y641096D02*
X368300Y654304D01*
X342900Y654304D02*
X342900Y641096D01*
X317500Y641096D02*
X317500Y654304D01*
X292100Y654304D02*
X292100Y641096D01*
X266700Y641096D02*
X266700Y654304D01*
X241300Y654304D02*
X241300Y641096D01*
X215900Y641096D02*
X215900Y654304D01*
X190500Y654304D02*
X190500Y641096D01*
X165100Y641096D02*
X165100Y654304D01*
X139700Y654304D02*
X139700Y641096D01*
X114300Y641096D02*
X114300Y654304D01*
X88900Y654304D02*
X88900Y641096D01*
D11*
X584200Y698500D03*
X609600Y698500D03*
X635000Y698500D03*
X660400Y698500D03*
X685800Y698500D03*
X711200Y698500D03*
X736600Y698500D03*
X762000Y698500D03*
X228600Y762000D03*
X304800Y762000D03*
D12*
X278800Y102900D03*
X278800Y126900D03*
X278800Y152900D03*
X278800Y177900D03*
X278800Y202900D03*
X278800Y227900D03*
X278800Y252900D03*
X278800Y277900D03*
X128800Y102900D03*
X128800Y126900D03*
X128800Y152900D03*
X128800Y177900D03*
X128800Y202900D03*
X128800Y227900D03*
X128800Y252900D03*
X128800Y277900D03*
D13*
X673100Y279400D03*
X673100Y304800D03*
X673100Y330200D03*
X673100Y355600D03*
X673100Y381000D03*
X673100Y406400D03*
X673100Y431800D03*
X673100Y457200D03*
X673100Y482600D03*
X673100Y508000D03*
X673100Y533400D03*
X673100Y25400D03*
X673100Y50800D03*
X673100Y76200D03*
X673100Y101600D03*
X673100Y127000D03*
X673100Y152400D03*
X673100Y177800D03*
X673100Y203200D03*
X673100Y228600D03*
X673100Y254000D03*
X927100Y279400D03*
X927100Y304800D03*
X927100Y330200D03*
X927100Y355600D03*
X927100Y381000D03*
X927100Y406400D03*
X927100Y431800D03*
X927100Y457200D03*
X927100Y482600D03*
X927100Y508000D03*
X927100Y533400D03*
X927100Y25400D03*
X927100Y50800D03*
X927100Y76200D03*
X927100Y101600D03*
X927100Y127000D03*
X927100Y152400D03*
X927100Y177800D03*
X927100Y203200D03*
X927100Y228600D03*
X927100Y254000D03*
M02*
